HIERARCHY
ROOT Hips
{
	OFFSET 0.00000 0.00000 0.00000
	CHANNELS 6 Xposition Yposition Zposition Zrotation Yrotation Xrotation 
	JOINT LHipJoint
	{
		OFFSET 0 0 0
		CHANNELS 3 Zrotation Yrotation Xrotation
		JOINT LeftHip
		{
			OFFSET 2.36090 -1.39315 1.24752
			CHANNELS 3 Zrotation Yrotation Xrotation
			JOINT LeftKnee
			{
				OFFSET 2.06810 -5.68207 0.00000
				CHANNELS 3 Zrotation Yrotation Xrotation
				JOINT LeftAnkle
				{
					OFFSET 2.46631 -6.77613 0.00000
					CHANNELS 3 Zrotation Yrotation Xrotation
					JOINT LeftToe
					{
						OFFSET 0.26031 -0.71520 1.99545
						CHANNELS 3 Zrotation Yrotation Xrotation
						End Site
						{
							OFFSET 0.00000 -0.00000 1.05957
						}
					}
				}
			}
		}
	}
	JOINT RHipJoint
	{
		OFFSET 0 0 0
		CHANNELS 3 Zrotation Yrotation Xrotation
		JOINT RightHip
		{
			OFFSET -2.25243 -1.39315 1.24752
			CHANNELS 3 Zrotation Yrotation Xrotation
			JOINT RightKnee
			{
				OFFSET -2.17343 -5.97145 0.00000
				CHANNELS 3 Zrotation Yrotation Xrotation
				JOINT RightAnkle
				{
					OFFSET -2.52372 -6.93386 0.00000
					CHANNELS 3 Zrotation Yrotation Xrotation
					JOINT RightToe
					{
						OFFSET -0.22538 -0.61923 2.11447
						CHANNELS 3 Zrotation Yrotation Xrotation
						End Site
						{
							OFFSET -0.00000 -0.00000 1.10506
						}
					}
				}
			}
		}
	}
	JOINT lowerback
	{
		OFFSET 0 0 0
		CHANNELS 3 Zrotation Yrotation Xrotation
		JOINT Chest
		{
			OFFSET 0.01594 2.13103 0.08007
			CHANNELS 3 Zrotation Yrotation Xrotation
			JOINT Chest2
			{
				OFFSET 0.01393 2.09723 0.18338
				CHANNELS 3 Zrotation Yrotation Xrotation
				JOINT lowerneck
				{
					OFFSET 0 0 0
					CHANNELS 3 Zrotation Yrotation Xrotation
					JOINT Neck
					{
						OFFSET 0.05351 1.38915 0.32494
						CHANNELS 3 Zrotation Yrotation Xrotation
						JOINT Head
						{
							OFFSET 0.00711 1.45992 -0.21666
							CHANNELS 3 Zrotation Yrotation Xrotation
							End Site
							{
								OFFSET -0.00433 1.47702 -0.11056
							}
						}
					}
				}
				JOINT LeftCollar
				{
					OFFSET 0 0 0
					CHANNELS 3 Zrotation Yrotation Xrotation
					JOINT LeftShoulder
					{
						OFFSET 2.87198 0.92249 0.11132
CHANNELS 3 Zrotation Xrotation Yrotation
						JOINT LeftElbow
						{
OFFSET 0 -5.527310 0.000000
CHANNELS 3 Zrotation Xrotation Yrotation
							JOINT LeftWrist
							{
OFFSET 0 -3.110590 0.000000
CHANNELS 3 Zrotation Xrotation Yrotation
								JOINT lhand
								{
									OFFSET 0 0 0
CHANNELS 3 Zrotation Xrotation Yrotation
									JOINT LFingers
									{
OFFSET 0 -0.419630 0.000000
CHANNELS 3 Zrotation Xrotation Yrotation
										End Site
										{
OFFSET 0 -0.338310 0.000000
										}
									}
								}
								JOINT LThumb
								{
OFFSET 0 0.000000 0.000000
CHANNELS 3 Zrotation Xrotation Yrotation
									End Site
									{
OFFSET 0 -0.343480 0.343480
									}
								}
							}
						}
					}
				}
				JOINT RightCollar
				{
					OFFSET 0 0 0
					CHANNELS 3 Zrotation Yrotation Xrotation
					JOINT RightShoulder
					{
						OFFSET -2.94710 0.68072 0.32187
CHANNELS 3 Zrotation Xrotation Yrotation
						JOINT RightElbow
						{
OFFSET 0 -5.253960 -0.000000
CHANNELS 3 Zrotation Xrotation Yrotation
							JOINT RightWrist
							{
OFFSET 0 -3.105670 0.000000
CHANNELS 3 Zrotation Xrotation Yrotation
								JOINT rhand
								{
									OFFSET 0 0 0
CHANNELS 3 Zrotation Xrotation Yrotation
									JOINT RFingers
									{
OFFSET 0 -0.498680 0.000000
CHANNELS 3 Zrotation Xrotation Yrotation
										End Site
										{
OFFSET 0 -0.402040 0.000000
										}
									}
								}
								JOINT RThumb
								{
OFFSET 0 0.000000 0.000000
CHANNELS 3 Zrotation Xrotation Yrotation
									End Site
									{
OFFSET 0 -0.408180 0.408180
									}
								}
							}
						}
					}
				}
			}
		}
	}
}
MOTION
Frames: 10
Frame Time: 0.008333333333333333
3.787900 9.705900 3.262800 0.026600 -4.879600 -3.055800 0.000000 0.000000 0.000000 -0.706800 -8.801200 -85.502000 18.291300 19.929900 84.998400 0.076200 -3.255600 7.434900 0.143300 -2.440000 -6.723200 0.000000 0.000000 0.000000 -1.998400 12.033400 -88.343300 -21.089000 -19.971500 93.185600 -0.008400 0.699100 2.134300 -0.070800 1.716100 -4.721600 0.031800 0.102100 -18.154400 1.768500 -0.109000 3.175700 1.937700 -0.144400 13.846400 3.936800 4.074200 -19.305700 -5.097300 6.167300 27.623400 -1.595700 2.470000 12.698100 0.000000 -0.000000 0.000000 47.699500 32.662500 -78.085800 88.219000 -59.988000 58.457700 53.792100 -59.040800 10.964700 0.000000 0.000000 0.000000 -7.125000 0.000000 0.000000 17.734900 12.428900 14.216800 0.000000 -0.000000 0.000000 -60.437900 27.525900 86.473500 -97.934000 -59.760800 -66.865500 -57.319000 12.516100 23.717300 0.000000 0.000000 0.000000 7.125000 0.000000 -0.000000 -40.226700 64.692700 20.712400
3.790649 9.699648 3.255078 -0.050491 -4.808409 -3.284298 0.000000 0.000000 0.000000 -0.658345 -8.897334 -85.302136 18.295840 19.930231 85.011857 0.078140 -3.227595 7.463640 0.138871 -2.401743 -6.617218 0.000000 0.000000 0.000000 -1.850359 11.910060 -88.091397 -21.085826 -19.971662 93.176103 -0.007900 0.745684 2.123761 -0.067104 1.671296 -4.598145 0.046219 0.074829 -17.751964 1.811170 -0.153017 3.357609 1.962592 -0.166324 13.819865 4.342571 4.260623 -19.314058 -5.307800 6.369085 27.658283 -1.711552 2.573709 12.750154 0.000000 0.000000 0.000000 47.090824 32.497313 -77.270801 87.113902 -59.967744 57.500888 54.171964 -60.238670 12.222348 0.000000 0.000000 0.000000 -7.125000 0.000000 0.000000 17.618605 10.381994 14.895535 0.000000 0.000000 0.000000 -60.304874 28.189050 86.508068 -97.303826 -59.797104 -66.321001 -58.000706 13.512259 23.199982 0.000000 0.000000 0.000000 7.125000 0.000000 0.000000 -41.053863 64.298252 20.839832
3.793768 9.697203 3.250073 -0.134192 -4.763629 -3.392955 0.000000 0.000000 0.000000 -0.593861 -8.964078 -85.213393 18.298453 19.930424 85.019497 0.079271 -3.207717 7.476209 0.138403 -2.397820 -6.606453 0.000000 0.000000 0.000000 -1.729225 11.830142 -87.943960 -21.074614 -19.972294 93.143360 -0.007962 0.759109 2.141357 -0.064976 1.644703 -4.524741 0.147969 0.080486 -17.517052 1.810439 -0.168027 3.486579 1.898849 -0.165426 13.829954 4.897029 4.414595 -19.292060 -5.683698 6.529501 27.713052 -1.923331 2.652926 12.815152 0.000000 0.000000 0.000000 46.508467 32.121237 -76.576379 85.771514 -59.931213 56.338856 54.867866 -60.499100 12.948797 0.000000 0.000000 0.000000 -7.125000 0.000000 0.000000 17.827983 8.998521 15.618553 0.000000 0.000000 0.000000 -59.974325 28.659333 86.378122 -96.203946 -59.853099 -65.370115 -58.955657 15.294846 22.911966 0.000000 0.000000 0.000000 7.125000 0.000000 0.000000 -42.710948 64.268866 21.799124
3.797116 9.696125 3.246628 -0.218709 -4.734666 -3.456198 0.000000 0.000000 0.000000 -0.519936 -9.011001 -85.171253 18.303584 19.930871 85.034667 0.080056 -3.193079 7.485020 0.136581 -2.381727 -6.561727 0.000000 0.000000 0.000000 -1.612187 11.765189 -87.837332 -21.060868 -19.972971 93.103154 -0.007907 0.774686 2.154868 -0.063603 1.627130 -4.476180 0.250306 0.089689 -17.327764 1.827095 -0.180373 3.587907 1.855186 -0.164051 13.834907 5.006642 4.583574 -19.029698 -5.558777 6.703458 27.621775 -1.866181 2.764978 12.734345 0.000000 0.000000 0.000000 45.897664 31.717876 -75.988060 84.497957 -59.885115 55.236941 55.905522 -61.130757 13.779522 0.000000 0.000000 0.000000 -7.125000 0.000000 0.000000 18.198414 7.281233 16.629533 0.000000 0.000000 0.000000 -59.581954 29.026401 86.120468 -94.929754 -59.907772 -64.268037 -59.886535 17.032839 22.570443 0.000000 0.000000 0.000000 7.125000 0.000000 0.000000 -44.276048 64.168751 22.649532
3.800488 9.694394 3.243453 -0.301494 -4.712028 -3.543589 0.000000 0.000000 0.000000 -0.454113 -9.044455 -85.106436 18.312277 19.931565 85.060038 0.080400 -3.187365 7.489271 0.135118 -2.368828 -6.526097 0.000000 0.000000 0.000000 -1.490196 11.705549 -87.710078 -21.048181 -19.973618 93.066009 -0.007876 0.793008 2.164394 -0.061965 1.606240 -4.418673 0.364639 0.103601 -17.129968 1.836424 -0.187824 3.699879 1.798060 -0.159017 13.846748 5.260106 4.738417 -18.771190 -5.604750 6.862906 27.514113 -1.902332 2.863090 12.660552 0.000000 0.000000 0.000000 45.323282 31.287962 -75.476714 83.448421 -59.836814 54.329289 57.063056 -62.036794 14.607161 0.000000 0.000000 0.000000 -7.125000 0.000000 0.000000 18.622106 5.449121 17.757423 0.000000 0.000000 0.000000 -59.074945 29.213033 85.675647 -93.597341 -59.950350 -63.114884 -60.777458 18.886108 22.387729 0.000000 0.000000 0.000000 7.125000 0.000000 0.000000 -45.996758 64.245102 23.792881
3.803815 9.692584 3.241184 -0.385304 -4.699435 -3.647374 0.000000 0.000000 0.000000 -0.391384 -9.060946 -85.024651 18.324523 19.932590 85.095980 0.080182 -3.191764 7.487486 0.133601 -2.355575 -6.489414 0.000000 0.000000 0.000000 -1.359145 11.654607 -87.563757 -21.036728 -19.974218 93.032512 -0.007691 0.817020 2.164258 -0.060819 1.591293 -4.377531 0.489018 0.118251 -16.933449 1.845619 -0.196317 3.818484 1.734988 -0.153595 13.866939 5.529486 4.887564 -18.485514 -5.681962 7.019291 27.374272 -1.954146 2.958323 12.570989 0.000000 0.000000 0.000000 44.789774 30.883204 -75.059384 82.629194 -59.793410 53.621150 58.243796 -62.908189 15.258388 0.000000 0.000000 0.000000 -7.125000 0.000000 0.000000 19.094752 3.813875 18.883781 0.000000 0.000000 0.000000 -58.488918 29.194541 85.091365 -92.303496 -59.979089 -61.994725 -61.601612 20.640380 22.338828 0.000000 0.000000 0.000000 7.125000 0.000000 0.000000 -47.806975 64.455337 25.164420
3.807047 9.690620 3.239562 -0.471174 -4.696700 -3.773365 0.000000 0.000000 0.000000 -0.330431 -9.061355 -84.918590 18.340149 19.933853 85.141679 0.079403 -3.207029 7.479146 0.132162 -2.343266 -6.455190 0.000000 0.000000 0.000000 -1.216495 11.612522 -87.390986 -21.026075 -19.974741 93.001167 -0.007259 0.848339 2.154952 -0.060415 1.585991 -4.362844 0.620430 0.129469 -16.734060 1.854104 -0.210678 3.950053 1.665707 -0.150209 13.900584 5.848481 5.037061 -18.228517 -5.820313 7.179668 27.238788 -2.036765 3.051666 12.495274 0.000000 0.000000 0.000000 44.314328 30.557737 -74.701023 82.015487 -59.757676 53.090807 59.246137 -63.524342 15.649294 0.000000 0.000000 0.000000 -7.125000 0.000000 0.000000 19.533441 2.630362 19.821598 0.000000 0.000000 0.000000 -57.884809 28.995943 84.465677 -91.186116 -59.994378 -61.027206 -62.360928 22.117324 22.380657 0.000000 0.000000 0.000000 7.125000 0.000000 0.000000 -49.664572 64.745385 26.692606
3.810008 9.688509 3.238668 -0.555148 -4.703579 -3.925334 0.000000 0.000000 0.000000 -0.275290 -9.046156 -84.783096 18.358478 19.935294 85.195539 0.077989 -3.231403 7.462855 0.130787 -2.331164 -6.421750 0.000000 0.000000 0.000000 -1.067502 11.581272 -87.189121 -21.016977 -19.975149 92.974628 -0.006735 0.883640 2.138072 -0.060797 1.590960 -4.376373 0.754563 0.136399 -16.520974 1.856220 -0.230075 4.086485 1.586353 -0.148373 13.931559 6.167427 5.192191 -18.039457 -5.937898 7.343912 27.167154 -2.110180 3.147382 12.459612 0.000000 0.000000 0.000000 43.936102 30.366059 -74.390170 81.536511 -59.727521 52.677160 59.912813 -63.862676 15.812686 0.000000 0.000000 0.000000 -7.125000 0.000000 0.000000 19.848753 1.969143 20.435328 0.000000 0.000000 0.000000 -57.328820 28.680527 83.919772 -90.317426 -59.999481 -60.274913 -63.036401 23.138520 22.443267 0.000000 0.000000 0.000000 7.125000 0.000000 0.000000 -51.421428 65.024940 28.187521
3.812306 9.686153 3.238641 -0.636006 -4.714814 -4.092472 0.000000 0.000000 0.000000 -0.225970 -9.018489 -84.630277 18.378785 19.936865 85.254986 0.076147 -3.264782 7.441820 0.130012 -2.324011 -6.402057 0.000000 0.000000 0.000000 -0.917772 11.559009 -86.970691 -21.010458 -19.975494 92.955621 -0.006212 0.918105 2.112843 -0.061771 1.603602 -4.411342 0.886937 0.141383 -16.297731 1.847051 -0.249426 4.217890 1.495427 -0.145788 13.950026 6.441445 5.356801 -17.911056 -5.959857 7.509383 27.171535 -2.138967 3.249315 12.461373 0.000000 0.000000 0.000000 43.677017 30.302845 -74.115431 81.091579 -59.697889 52.292953 60.269653 -64.253688 15.975263 0.000000 0.000000 0.000000 -7.125000 0.000000 0.000000 19.994656 1.488607 20.787592 0.000000 0.000000 0.000000 -56.860654 28.341233 83.526705 -89.629858 -59.999241 -59.679459 -63.607823 23.697116 22.459979 0.000000 0.000000 0.000000 7.125000 0.000000 0.000000 -52.895313 65.214119 29.422078
3.813958 9.684186 3.239658 -0.706461 -4.730213 -4.250870 0.000000 0.000000 0.000000 -0.186960 -8.979372 -84.483723 18.399752 19.938514 85.316577 0.073975 -3.303379 7.415950 0.129644 -2.320909 -6.393304 0.000000 0.000000 0.000000 -0.782528 11.546688 -86.764064 -21.006863 -19.975678 92.945122 -0.005610 0.948206 2.084792 -0.063080 1.620347 -4.457546 1.010370 0.149191 -16.091647 1.825887 -0.261190 4.343297 1.398350 -0.139678 13.971493 6.680109 5.522268 -17.852467 -5.914305 7.667364 27.241930 -2.136382 3.350810 12.499038 0.000000 0.000000 0.000000 43.522538 30.305410 -73.866348 80.622797 -59.665052 51.888234 60.428630 -64.875200 16.266979 0.000000 0.000000 0.000000 -7.125000 0.000000 0.000000 19.996355 0.927749 20.998717 0.000000 0.000000 0.000000 -56.475667 28.029432 83.257276 -88.999098 -59.996083 -59.133229 -64.036478 23.857655 22.406981 0.000000 0.000000 0.000000 7.125000 0.000000 0.000000 -53.908841 65.280135 30.211098
